<?xml version="1.0" encoding="UTF-8"?>
<svg xmlns="http://www.w3.org/2000/svg" id="Layer_1" data-name="Layer 1" viewBox="0 0 24 24">
  <path d="m21.577,9c1.298-2.987,1.75-5.736,1.161-7.332-.326-.887-.897-1.291-1.319-1.474-2.594-1.127-6.009,2.665-8.079,6.667,0,0-.389.75-.599,1.167-.108-.422-.242-.839-.42-1.242l-.896-2.033c-.282-.64-.425-1.318-.425-2.017v-.736h1V0H3v2h1v.736c0,.698-.143,1.377-.425,2.017l-.896,2.033c-.314.71-.512,1.452-.609,2.214H-.033l1.917,12.455c.226,1.475,1.473,2.545,2.965,2.545h14.303c1.492,0,2.739-1.07,2.965-2.544l1.917-12.456h-2.456Zm-5.547-2.816l1.955,1.173,1.029-1.715-1.825-1.095c1.556-1.94,2.956-2.721,3.433-2.519.094.041.174.152.24.331.361.98.049,3.455-1.482,6.641h-4.891c.221-.441.419-.821.547-1.067,0,0,.686-1.261.993-1.748Zm-11.52,1.409l.896-2.033c.395-.896.595-1.846.595-2.823v-.736h3v.736c0,.978.2,1.927.595,2.823l.896,2.033c.2.453.334.925.417,1.407h-6.814c.082-.482.217-.954.417-1.407Zm15.63,13.56c-.075.491-.491.848-.988.848H4.849c-.497,0-.913-.356-.988-.849l-1.562-10.151h19.402l-1.562,10.152Zm-7.14-1.152h-2v-7h2v7Zm5,0h-2v-7h2v7Zm-10,0h-2v-7h2v7Z"/>
</svg>
