<?xml version="1.0" encoding="UTF-8"?>
<svg xmlns="http://www.w3.org/2000/svg" id="Layer_1" data-name="Layer 1" viewBox="0 0 24 24">
  <path d="m9,15.842c-1.708-.158-3.38-.432-5-.847v-2.063c1.614.444,3.287.735,5,.902v2.008Zm0-10.008c-1.713-.167-3.386-.458-5-.902v2.063c1.62.414,3.292.689,5,.847v-2.008Zm0,4c-1.713-.167-3.386-.458-5-.902v2.063c1.62.414,3.292.689,5,.847v-2.008Zm6-1.992c1.708-.158,3.38-.432,5-.847v-2.063c-1.614.444-3.287.735-5,.902v2.008Zm8.359,11.591c-1.976.76-4.041,1.312-6.178,1.654,2.004.491,4.422.913,6.819.913v2c-5.324,0-10.552-1.865-12-2.424-1.448.559-6.676,2.424-12,2.424v-2c2.397,0,4.815-.421,6.819-.913-2.138-.341-4.203-.894-6.179-1.654l-.641-.247V3.07c0-.965.439-1.853,1.206-2.435C1.99.039,2.99-.149,3.952.117c2.568.714,5.322,1.375,8.051,1.383,2.724-.008,5.477-.669,8.046-1.383.959-.265,1.961-.078,2.745.519.767.582,1.206,1.47,1.206,2.435v16.116l-.641.247ZM11,3.472c-2.623-.138-5.185-.76-7.584-1.427-.354-.101-.718-.032-1,.184-.155.117-.416.384-.416.842v14.734c2.827,1.009,5.847,1.572,9,1.677V3.472Zm11-.401c0-.458-.261-.725-.416-.842-.282-.215-.643-.285-1-.184-2.4.667-4.964,1.29-7.584,1.427v16.01c3.151-.105,6.172-.668,9-1.677V3.07Zm-7,12.772c1.708-.158,3.38-.432,5-.847v-2.063c-1.614.444-3.287.735-5,.902v2.008Zm0-4c1.708-.158,3.38-.432,5-.847v-2.063c-1.614.444-3.287.735-5,.902v2.008Z"/>
</svg>
