<?xml version="1.0" encoding="UTF-8"?>
<svg xmlns="http://www.w3.org/2000/svg" id="Layer_1" data-name="Layer 1" viewBox="0 0 24 24" width="512" height="512"><path d="m17,12v1h-2.5l-1.911,2.421c-.195.357-.569.579-.975.579h-1.113l1.167-3h-2.017l-1.546-1.833c-.297-.52.078-1.167.677-1.167.207,0,.405.082.551.228l1.11.772h1.241l-1.184-3h1.096c.407,0,.781.222.975.579l1.929,2.421h1.25c.802,0,1.25.448,1.25,1Zm4,0c0,1.103.897,2,2,2h1v4c0,1.654-1.346,3-3,3H3c-1.654,0-3-1.346-3-3V6c0-1.654,1.346-3,3-3h18c1.654,0,3,1.346,3,3v4h-1c-1.103,0-2,.897-2,2Zm-2,0c0-1.86,1.276-3.429,3-3.873v-2.127c0-.552-.448-1-1-1H6v2h-2v-2h-1c-.552,0-1,.448-1,1v12c0,.552.448,1,1,1h1v-2h2v2h15c.552,0,1-.448,1-1v-2.127c-1.724-.444-3-2.013-3-3.873Zm-15-1h2v-2h-2v2Zm0,4h2v-2h-2v2Z"/></svg>
