<?xml version="1.0" encoding="UTF-8"?>
<svg xmlns="http://www.w3.org/2000/svg" id="Layer_1" data-name="Layer 1" viewBox="0 0 24 24">
  <path d="m15.038,12c.446,0,1.653.464,2.515.895l.211.105h6.236v-2h-5.769c-.406-.194-1.194-.548-1.969-.779,1.074-1.084,1.738-2.575,1.738-4.221,0-3.314-2.686-6-6-6s-6,2.686-6,6c0,1.647.665,3.138,1.739,4.223-.778.231-1.565.584-1.97.777H0v2h6.236l.211-.105c.721-.361,2.024-.895,2.553-.895.371,0,.727.138,1.001.388l.546.497-2.069,1.908c-.562.562-.642,1.425-.189,2.055.272.378.748.616,1.21.652.417,0,.887-.157,1.16-.432l1.604-1.493,4.026,3.589-3.634,2.836h-1.312l-5.125-4H0v2h5.531l5.125,4h2.688l5.125-4h5.531v-2h-6.009l-5.105-4.55,1.134-1.046c.276-.26.638-.404,1.019-.404Zm-2.238-2.2v1.128c-.261.043-.526.072-.8.072s-.539-.03-.8-.073v-1.127h-.2c-1.201,0-2.189-.925-2.291-2.1h1.62c.086.289.354.5.671.5h2.126c.316,0,.574-.257.574-.574,0-.272-.194-.509-.462-.563l-2.791-.559c-1.013-.203-1.747-1.099-1.747-2.131,0-1.199.975-2.173,2.173-2.173h.327v-1.2h1.6v1.2h.2c1.201,0,2.189.925,2.291,2.1h-1.62c-.086-.289-.354-.5-.671-.5h-2.127c-.316,0-.573.257-.573.574,0,.272.194.509.461.562l2.792.559c1.013.202,1.747,1.099,1.747,2.131,0,1.199-.975,2.173-2.174,2.173h-.326Z"/>
</svg>
