<?xml version="1.0" encoding="UTF-8"?>
<svg xmlns="http://www.w3.org/2000/svg" id="Layer_1" data-name="Layer 1" viewBox="0 0 24 24" width="512" height="512"><path d="M22.624,0c-.985,0-1.907,.483-2.467,1.294l-6.88,9.948c-.413-.225-.885-.296-1.353-.202-.523,.106-.974,.411-1.237,.812l-1.137,1.532c-.028-.124-.056-.248-.084-.374-.088-.39-.43-1.997-.43-1.997l-7.851-.016s-.342,1.614-.431,2.006C.366,14.733-.002,16.367,0,19.021c.003,2.745,2.245,4.979,5,4.979h1.055c2.191,0,4.25-1.071,5.51-2.871l4.095-5.921c.295-.444,.398-.979,.292-1.502-.106-.524-.411-.975-.855-1.27l-.146-.097L21.803,2.431c.186-.27,.493-.431,.821-.431h1.376V0h-1.376ZM9.923,19.986c-.883,1.261-2.329,2.014-3.868,2.014h-1.055c-1.652,0-2.999-1.337-3-2.98-.002-2.431,.327-3.888,.707-5.576,.033-.146,.066-.293,.1-.441l4.61,.008c.032,.148,.065,.295,.099,.441,.188,.832,.364,1.618,.495,2.501l.354,2.389,3.959-5.341,1.68,1.088-4.08,5.898Z"/></svg>
