<?xml version="1.0" encoding="UTF-8"?>
<svg xmlns="http://www.w3.org/2000/svg" id="Layer_1" data-name="Layer 1" viewBox="0 0 24 24">
  <path d="m8.33,4.95l4.455-.495.495-4.455,2.885,2.885,2.885-2.885.495,4.455,4.455.495-2.583,2.583c-.683-.344-1.45-.533-2.25-.533h-6.333c-.714,0-1.401.151-2.026.427l-2.477-2.477Zm-1.806,6.947l-3.913.83h0s0,0,0,0l-.415-1.957c-.141-.663-.206-1.333-.195-2.003l1.737-.368.207.978c.1.471.515.793.978.793.069,0,.138-.007.208-.021.54-.115.885-.646.771-1.186l-.207-.978,2.345-.497-1.687-1.687-4.089.867.478-2.539c.075-.398.379-.709.775-.793,0,0,6.414-1.344,6.483-1.344.324,0,.632.158.822.433l.152.22.26-2.342c-.588-.287-1.266-.379-1.937-.236L3.101,1.379C1.912,1.631.999,2.565.775,3.759L.189,6.871c-.27,1.436-.253,2.887.05,4.315l.829,3.913,1.957-.415.414,1.956,2.704-.572c.157-1.05.444-2.076.857-3.067l.55-1.32-1.026.218h0Zm16.63,1.872c.562,1.347.846,2.77.846,4.23v4h-2v2h-4v-2h-4v2h-4v-2h-2v-4c0-1.461.285-2.884.846-4.23l1.218-2.923c.467-1.122,1.554-1.846,2.769-1.846h6.333c1.215,0,2.302.725,2.77,1.847l1.218,2.923Zm-12.237.23h10.167l-.994-2.384c-.156-.374-.519-.616-.923-.616h-6.333c-.405,0-.768.242-.923.615l-.994,2.385Zm11.083,4c0-.679-.075-1.347-.224-2h-1.776v1c0,.553-.448,1-1,1s-1-.447-1-1v-1h-4v1c0,.553-.448,1-1,1s-1-.447-1-1v-1h-1.776c-.149.653-.224,1.321-.224,2v2h12v-2Z"/>
</svg>
