<?xml version="1.0" encoding="UTF-8"?>
<svg xmlns="http://www.w3.org/2000/svg" id="Layer_1" data-name="Layer 1" viewBox="0 0 24 24" width="512" height="512"><path d="M20,21c-.848,0-1.646,.299-2.351,.563-.598,.225-1.164,.437-1.649,.437s-1.051-.212-1.649-.437c-.705-.264-1.503-.563-2.351-.563s-1.646,.299-2.351,.563c-.319,.12-.628,.235-.921,.318l3.779-8.531,10.057,4.455,.405-.915c1.298-2.931,1.377-6.191,.223-9.182s-3.404-5.352-6.335-6.65C13.926-.239,10.665-.318,7.675,.836,4.685,1.991,2.323,4.24,1.025,7.171l-.405,.914,10.058,4.455-4.043,9.129c-.094-.034-.188-.07-.283-.106-.705-.264-1.503-.563-2.351-.563s-1.646,.299-2.351,.563c-.598,.225-1.164,.437-1.649,.437v2c.848,0,1.646-.299,2.351-.563,.598-.225,1.164-.437,1.649-.437s1.051,.212,1.649,.437c.705,.264,1.503,.563,2.351,.563s1.646-.299,2.351-.563c.598-.225,1.164-.437,1.649-.437s1.051,.212,1.649,.437c.705,.264,1.503,.563,2.351,.563s1.646-.299,2.351-.563c.598-.225,1.164-.437,1.649-.437s1.051,.212,1.649,.437c.705,.264,1.503,.563,2.351,.563v-2c-.485,0-1.051-.212-1.649-.437-.705-.264-1.503-.563-2.351-.563ZM8.396,2.702c2.493-.962,5.21-.896,7.652,.186s4.317,3.049,5.279,5.541c.841,2.178,.896,4.529,.174,6.717L3.304,7.087c1.136-2.005,2.914-3.544,5.092-4.385Z"/></svg>
