<?xml version="1.0" encoding="UTF-8"?>
<svg xmlns="http://www.w3.org/2000/svg" id="Layer_1" data-name="Layer 1" viewBox="0 0 24 24">
  <path d="m22.577,7.324l1.414-1.414L18.09.01l-1.414,1.414,2.243,2.243-8.948,8.948-3.46-3.46-4.307,4.308c-1.421,1.421-2.204,3.311-2.204,5.321v5.218h5.218c2.01,0,3.899-.783,5.321-2.204l4.307-4.307-3.46-3.46,8.948-8.948,2.243,2.243Zm-10.559,10.165l-2.893,2.893c-1.043,1.043-2.431,1.618-3.907,1.618h-3.218v-3.218c0-1.476.575-2.863,1.618-3.907l2.893-2.894,2.046,2.046-2.765,2.765,1.414,1.414,2.765-2.765,2.046,2.046Z"/>
</svg>
