<?xml version="1.0" encoding="UTF-8"?>
<svg xmlns="http://www.w3.org/2000/svg" id="Layer_1" data-name="Layer 1" viewBox="0 0 24 24">
  <path d="m22.751,17.411l-9.108-6.47c2.64-2.167,3.844-3.16,3.175-6.088-.417-1.822-1.862-3.268-3.684-3.684-1.514-.345-3.068,0-4.259.952-1.192.95-1.875,2.369-1.875,3.891h2c0-.911.409-1.759,1.122-2.328.724-.578,1.635-.779,2.568-.565,1.061.242,1.937,1.118,2.179,2.179.383,1.678.148,1.927-2.505,4.106L1.222,17.431c-.765.583-1.222,1.506-1.222,2.467,0,1.71,1.392,3.102,3.102,3.102h17.796c1.71,0,3.102-1.392,3.102-3.102,0-.961-.457-1.884-1.249-2.487Zm-1.853,3.589H3.102c-.608,0-1.102-.494-1.102-1.102,0-.341.163-.669.407-.856l9.593-6.815,9.565,6.795c.272.207.435.535.435.876,0,.608-.494,1.102-1.102,1.102Z"/>
</svg>
