<?xml version="1.0" encoding="UTF-8"?>
<svg xmlns="http://www.w3.org/2000/svg" id="Layer_1" data-name="Layer 1" viewBox="0 0 24 24">
  <path d="m24,17c0,3.655-3,7.034-7,7.034-3.5,0-7-3.379-7-7.034,0-2.182,1.3-3.775,2.278-4.783l1.153-1.189.515,1.575c.094.287.215.591.335.853.065-.219.129-.459.185-.667.302-1.141.717-2.705,1.778-3.931l.703-.812.76.76c.434.433,1.024.904,1.649,1.403,2.069,1.65,4.644,3.703,4.644,6.791Zm-6,4.036c0-.267-.104-.519-.293-.708l-.707-.707-.707.707c-.188.189-.293.44-.293.708s.158.964,1,.964,1-.697,1-.964Zm4-4.036c0-2.125-2.066-3.773-3.89-5.227-.32-.255-.632-.503-.926-.749-.373.722-.589,1.534-.786,2.277-.335,1.265-.716,2.699-2.116,2.699-.248,0-.878,0-1.561-1.187-.493.744-.722,1.448-.722,2.187,0,1.629.795,3.066,2.006,3.979.015-.78.321-1.512.873-2.065l2.121-2.121,2.121,2.121c.553.553.859,1.285.873,2.065,1.21-.913,2.006-2.35,2.006-3.979Zm.813-9.365L13.908.659c-1.123-.881-2.693-.881-3.816,0L1.187,7.635c-.754.592-1.187,1.48-1.187,2.439v13.926h11.356c-.707-.571-1.327-1.244-1.834-2H2v-11.926c0-.335.157-.658.421-.865L11.326,2.233c.396-.311.95-.312,1.348,0l8.905,6.977c.172.135.293.322.36.528.712.609,1.429,1.29,2.061,2.06v-1.723c0-.958-.433-1.847-1.187-2.439Z"/>
</svg>
