<?xml version="1.0" encoding="UTF-8"?>
<svg xmlns="http://www.w3.org/2000/svg" id="Layer_1" data-name="Layer 1" viewBox="0 0 24 24">
  <path d="m14.998,14.883c0,.51-.202,1.117-1.166,1.117-.272-.012-.541-.059-.8-.139-.67-.211-1.397-.211-2.068,0-1.099.363-2.007.006-1.966-.978.002-1.455,1.487-2.883,3-2.883s2.998,1.428,2.998,2.883Zm.573-4.863c-.514-.061-.98.425-1.06,1.304-.163,2.075,1.623,2.346,1.862.222.08-.878-.287-1.464-.801-1.526Zm-7.258,0c-.514.061-.882.647-.802,1.526.239,2.124,2.024,1.852,1.862-.222-.081-.879-.546-1.365-1.06-1.304Zm3.29-.711c-.082-.879-.546-1.365-1.061-1.304-.516.061-.881.647-.8,1.526.239,2.125,2.025,1.852,1.861-.222Zm2.645.222c.08-.878-.288-1.464-.802-1.526-.514-.061-.98.425-1.06,1.304-.163,2.076,1.623,2.346,1.862.222Zm9.752-2.031c0,5.716-7.471,12.518-11.421,15.316l-.58.411-.579-.412c-.114-.082-11.42-8.331-11.42-15.314C0,3.916,2.916,1,6.5,1c2.317,0,4.349,1.222,5.5,3.052,1.151-1.83,3.183-3.052,5.5-3.052,3.584,0,6.5,2.916,6.5,6.5Zm-2,0c0-2.481-2.019-4.5-4.5-4.5-1.953,0-3.602,1.258-4.224,3h-2.553c-.621-1.742-2.271-3-4.224-3-2.481,0-4.5,2.019-4.5,4.5,0,4.736,7.185,11.094,10.007,13.259,4.094-3.051,9.993-8.958,9.993-13.259Z"/>
</svg>
