<?xml version="1.0" encoding="UTF-8"?>
<svg xmlns="http://www.w3.org/2000/svg" id="Layer_1" data-name="Layer 1" viewBox="0 0 24 24">
  <path d="m2,3c0-.551.448-1,1-1h8v7h7v1h2v-2.414L12.414,0H3C1.346,0,0,1.346,0,3v21h20v-2H2V3Zm11,.414l3.586,3.586h-3.586v-3.586Zm-.864,15.186h2.829l.325,1.4h1.609l-1.447-6.373c-.146-.668-.565-1.213-1.118-1.459-.251-.112-.514-.168-.776-.168-.305,0-.607.075-.882.225-.509.277-.875.776-1.001,1.356l-1.475,6.418h1.607l.33-1.4Zm1.102-4.679c.028-.128.104-.237.201-.29.038-.021.077-.031.118-.031.04,0,.081.01.127.03.056.025.161.139.207.351l.701,3.019h-2.081l.726-3.079Zm-6.539,6.079v-6.4h-1.9v-1.6h5.5v1.6h-2v6.4h-1.6Zm14.306-4l1.994,4h-1.812l-1.088-2.182-1.088,2.182h-1.812l1.994-4-1.994-4h1.812l1.088,2.182,1.088-2.182h1.812l-1.994,4Z"/>
</svg>
