<?xml version="1.0" encoding="UTF-8"?>
<svg xmlns="http://www.w3.org/2000/svg" id="Layer_1" data-name="Layer 1" viewBox="0 0 24 24">
  <path d="m22,20l-.033-12.5c-.283-4.279-2.363-7.5-4.967-7.5H5C2.196,0,0,3.733,0,8.5s2.196,8.5,5,8.5h3v3c0,2.206,1.794,4,4,4h12v-2c-1.103,0-2-.897-2-2Zm-2-11.5c0,3.831-1.581,6.5-3,6.5s-3-2.669-3-6.5,1.581-6.5,3-6.5,3,2.669,3,6.5Zm-18,0c0-3.831,1.581-6.5,3-6.5h8.745c-1.073,1.547-1.745,3.866-1.745,6.5s.671,4.953,1.745,6.5H5c-1.419,0-3-2.669-3-6.5Zm10,13.5c-1.103,0-2-.897-2-2v-3h7c1.135,0,2.17-.612,3-1.655v4.655c0,.728.195,1.411.537,2h-8.537Zm4-13.5c0-.828.448-1.5,1-1.5s1,.672,1,1.5-.448,1.5-1,1.5-1-.672-1-1.5Z"/>
</svg>
