<?xml version="1.0" encoding="UTF-8"?>
<svg xmlns="http://www.w3.org/2000/svg" id="Layer_1" data-name="Layer 1" viewBox="0 0 24 24">
  <path d="m21,3H3c-1.654,0-3,1.346-3,3v12c0,1.654,1.346,3,3,3h18c1.654,0,3-1.346,3-3V6c0-1.654-1.346-3-3-3Zm-9,11c-1.103,0-2-.897-2-2s.897-2,2-2,2,.897,2,2-.897,2-2,2ZM2,10h2v4h-2v-4Zm0,8v-2h4v-8H2v-2c0-.552.449-1,1-1h8v3.142c-1.72.447-3,1.999-3,3.858s1.28,3.411,3,3.858v3.142H3c-.551,0-1-.448-1-1Zm19,1h-8v-3.142c1.72-.447,3-1.999,3-3.858s-1.28-3.411-3-3.858v-3.142h8c.551,0,1,.448,1,1v2h-4v8h4v2c0,.552-.449,1-1,1Zm1-9v4h-2v-4h2Z"/>
</svg>
