<?xml version="1.0" encoding="UTF-8"?>
<svg xmlns="http://www.w3.org/2000/svg" id="Layer_1" data-name="Layer 1" viewBox="0 0 24 24" width="512" height="512"><path d="M14.541,5.472c1.196-1.02,2.459-2.548,2.459-4.472V0H7V1c0,1.924,1.263,3.451,2.459,4.472C4.754,7.149,1,13.124,1,18c0,3.309,2.691,6,6,6h10c3.309,0,6-2.691,6-6,0-4.876-3.754-10.851-8.459-12.528Zm-5.334-3.472h5.583c-.521,1.256-1.89,2.31-2.783,2.852-.752-.46-2.251-1.512-2.799-2.852Zm7.793,20H7c-2.206,0-4-1.794-4-4,0-5.161,4.59-10.983,8.998-10.983s9.002,5.823,9.002,10.983c0,2.206-1.794,4-4,4Zm-7-9c0,.378,.271,.698,.644,.76l3.042,.507c1.341,.223,2.315,1.373,2.315,2.733,0,1.654-1.346,3-3,3v1h-2v-1c-1.654,0-3-1.346-3-3h2c0,.551,.449,1,1,1h2c.551,0,1-.449,1-1,0-.378-.271-.698-.644-.76l-3.042-.507c-1.341-.223-2.315-1.373-2.315-2.733,0-1.654,1.346-3,3-3v-1h2v1c1.654,0,3,1.346,3,3h-2c0-.551-.449-1-1-1h-2c-.551,0-1,.449-1,1Z"/></svg>
