<?xml version="1.0" encoding="UTF-8"?>
<svg xmlns="http://www.w3.org/2000/svg" id="Layer_1" data-name="Layer 1" viewBox="0 0 24 24" width="512" height="512"><path d="m9.007,6.507c0-.828.672-1.5,1.5-1.5s1.5.672,1.5,1.5-.672,1.5-1.5,1.5-1.5-.672-1.5-1.5Zm14.959,6.987c-.777,4.601-3.865,8.688-7.732,10.515H7.782C3.916,22.182.829,18.094.05,13.493c-.146-.862.096-1.742.664-2.414.352-.418.805-.725,1.308-.901-.007-.101-.014-.202-.014-.304,0-1.501.767-2.853,2.008-3.629-.006-.081-.009-.16-.009-.238,0-2.351,2.053-4.266,4.437-3.974C9.186.793,10.526.006,12.008.006s2.822.786,3.564,2.027c2.315-.276,4.345,1.541,4.433,3.819,1.236.781,2.003,2.137,2.003,3.624,0,.23-.025.459-.062.685.522.173.992.486,1.357.917.567.673.809,1.553.663,2.415Zm-19.958-3.619c0,.045.01.089.012.134h9.074c-.058-.159-.094-.329-.094-.508,0-.828.672-1.5,1.5-1.5s1.5.672,1.5,1.5c0,.179-.037.349-.094.508h4.039c.041-.172.063-.349.063-.531,0-.925-.561-1.757-1.429-2.119l-.716-.299s.145-.966.145-1.052c0-1.103-.897-2-2-2-.446,0-1.628.47-1.628.47l-.321-.973c-.297-.896-1.12-1.498-2.051-1.498s-1.755.603-2.052,1.499l-.321.972s-1.026-.47-1.628-.47c-1.103,0-2,.897-2,2,0,.153.324,1.401.324,1.401l-.843.326c-.899.348-1.48,1.188-1.48,2.14Zm17.767,2.495c-.194-.229-.477-.361-.776-.361H3.018c-.299,0-.582.132-.776.361-.109.13-.284.406-.219.79.647,3.826,3.076,7.273,6.215,8.849h7.541c3.14-1.575,5.568-5.022,6.215-8.849.065-.385-.109-.66-.219-.79Z"/></svg>
